<?xml version="1.0" standalone="no"?>
<!DOCTYPE svg PUBLIC "-//W3C//DTD SVG 20010904//EN"
 "http://www.w3.org/TR/2001/REC-SVG-20010904/DTD/svg10.dtd">
<svg version="1.0" xmlns="http://www.w3.org/2000/svg"
 width="1056.000000pt" height="1056.000000pt" viewBox="0 0 1056.000000 1056.000000"
 preserveAspectRatio="xMidYMid meet">
<metadata>
Created by potrace 1.11, written by Peter Selinger 2001-2013
</metadata>
<g transform="translate(0.000000,1056.000000) scale(0.100000,-0.100000)"
fill="#000000" stroke="none">
<path d="M4809 8266 c-2 -2 -25 -7 -51 -10 -67 -9 -173 -43 -241 -78 -105 -52
-183 -133 -238 -243 -22 -44 -42 -93 -45 -110 -2 -16 -6 -35 -9 -42 -14 -41
-18 -268 -19 -1178 -2 -894 -4 -1023 -17 -1048 l-15 -28 -35 39 c-40 46 -68
80 -214 257 -58 72 -114 139 -123 150 -9 11 -48 58 -87 105 -38 47 -74 90 -80
96 -5 6 -21 26 -35 44 -14 18 -32 40 -41 49 -8 9 -33 39 -55 66 -21 28 -41 52
-44 55 -3 3 -91 109 -195 235 -104 127 -196 238 -204 247 -9 9 -28 31 -42 50
-15 18 -86 105 -159 193 -72 88 -148 180 -168 204 -21 25 -47 56 -59 69 -13
14 -23 28 -23 31 0 3 -17 25 -38 47 -20 23 -44 50 -52 60 -47 60 -156 191
-170 206 -8 9 -25 29 -37 45 -73 93 -55 85 -193 89 -183 6 -623 3 -882 -5 -25
-1 -28 -5 -28 -36 0 -19 3 -36 8 -36 4 -1 42 -3 84 -5 45 -1 91 -9 109 -18 18
-9 38 -16 45 -16 27 0 146 -70 180 -107 42 -45 80 -106 91 -148 5 -22 13
-1059 14 -2005 0 -8 -2 -278 -4 -600 -3 -543 -4 -587 -21 -616 -22 -36 -44
-51 -100 -68 -76 -23 -139 -9 -166 37 -23 37 -25 56 -8 92 11 25 57 45 83 36
53 -18 76 -18 99 0 25 20 30 68 11 101 -26 43 -149 57 -213 24 -46 -24 -99
-95 -107 -144 -5 -33 -2 -52 15 -87 12 -25 25 -45 29 -45 3 0 17 -17 30 -39
35 -56 62 -67 166 -70 101 -2 133 -17 150 -68 6 -19 9 -300 8 -774 -1 -796 -5
-975 -28 -1224 -7 -78 -21 -125 -36 -125 -5 0 -9 -6 -9 -13 0 -6 -19 -22 -42
-34 -66 -33 -104 -42 -196 -47 -70 -3 -74 -5 -77 -41 -4 -32 16 -43 78 -43 25
0 63 -6 82 -12 23 -8 59 -9 103 -4 37 4 166 8 287 9 121 1 274 3 340 4 66 1
145 -1 175 -5 69 -9 102 -9 164 0 66 9 86 21 81 47 -7 37 -23 46 -72 44 -27
-1 -52 0 -58 3 -5 3 -20 7 -33 8 -37 4 -112 45 -144 78 -35 36 -63 96 -72 151
-9 55 -11 965 -2 992 8 24 24 31 83 38 118 14 167 4 213 -44 14 -14 128 -175
155 -218 6 -9 16 -24 22 -32 7 -9 55 -77 108 -151 52 -74 101 -144 109 -155 8
-11 59 -83 113 -160 425 -602 467 -658 574 -764 61 -62 221 -179 253 -186 6
-1 47 -19 91 -39 44 -20 89 -41 100 -46 35 -16 168 -58 230 -74 155 -38 289
-53 459 -51 115 2 159 5 241 21 11 2 40 7 65 10 25 3 48 8 52 11 5 2 16 6 25
8 10 1 45 11 78 21 33 10 62 18 65 19 3 0 30 9 60 20 30 11 58 18 63 17 4 -1
7 2 7 8 0 6 3 9 8 8 32 -7 329 152 404 217 22 18 56 41 75 50 33 16 35 16 48
-1 7 -10 13 -43 13 -74 0 -69 14 -100 47 -100 28 0 49 19 71 65 8 19 28 42 42
51 41 27 149 24 227 -6 16 -6 40 -12 54 -15 14 -2 52 -8 83 -15 134 -26 202
-33 358 -34 193 -1 305 18 420 72 30 14 57 26 60 27 31 7 136 91 203 161 54
57 147 190 147 210 0 7 4 14 8 16 5 2 20 28 35 59 38 82 42 84 181 86 67 1
130 4 142 6 58 14 125 37 164 57 44 22 150 90 160 101 3 3 40 29 83 58 82 55
112 61 131 26 6 -11 13 -22 16 -25 3 -3 16 -26 29 -52 91 -180 239 -220 431
-116 96 52 169 111 235 189 27 32 65 121 65 153 0 23 -2 24 -28 15 -15 -5 -43
-23 -62 -40 -55 -48 -102 -78 -135 -83 -44 -8 -110 27 -126 67 -10 24 -14 165
-16 642 -1 335 -4 621 -6 635 -12 82 -33 146 -70 205 -21 34 -97 105 -136 126
-140 76 -144 84 -106 196 34 99 21 174 -44 247 -27 31 -100 69 -142 73 -56 7
-132 -14 -168 -46 -26 -23 -31 -35 -31 -72 1 -69 40 -103 107 -93 21 3 44 6
51 6 6 1 12 6 12 11 0 5 6 7 14 4 7 -3 18 -1 23 4 6 6 18 3 32 -8 19 -15 23
-29 23 -72 -1 -60 -20 -97 -60 -112 -124 -47 -247 29 -277 171 -4 19 -9 877
-10 1905 -2 1495 -5 1875 -15 1897 -12 25 -35 40 -65 43 -24 3 -568 -202 -610
-229 -24 -16 -27 -38 -8 -57 6 -6 44 -12 84 -14 199 -7 211 -24 208 -305 0
-41 0 -81 0 -87 0 -7 1 -25 0 -40 0 -16 1 -37 1 -48 1 -11 1 -24 1 -30 0 -5 0
-28 0 -50 0 -69 -1 -104 -1 -122 -1 -25 -2 -175 -1 -190 0 -7 1 -25 0 -40 0
-16 1 -37 1 -48 1 -11 1 -24 1 -30 0 -5 0 -28 0 -50 0 -69 -1 -104 -1 -122 -1
-25 -2 -175 -1 -190 0 -7 1 -24 1 -38 0 -14 0 -32 0 -40 0 -8 0 -26 0 -40 0
-14 0 -33 0 -42 0 -10 0 -40 0 -68 0 -61 1 -92 4 -127 1 -16 -1 -28 -5 -28 -3
0 -5 -12 -2 -27 4 -30 6 -212 3 -228 -1 -5 -1 -12 0 -15 6 -16 6 -68 -1 -86
-4 -12 -5 -24 -2 -28 9 -9 11 -76 2 -81 -5 -4 -5 -40 1 -40 0 0 3 -256 5 -570
2 -344 8 -583 14 -603 5 -18 10 -36 10 -40 2 -17 25 -80 42 -113 10 -19 45
-66 80 -104 70 -78 70 -80 -25 -111 -104 -34 -247 -117 -316 -182 -42 -41 -79
-57 -94 -42 -16 16 -15 781 2 799 45 47 159 245 182 316 7 22 15 45 19 50 3 6
7 19 9 30 5 29 10 50 12 50 5 0 23 142 22 170 -8 159 -21 196 -71 197 -36 1
-50 -13 -52 -52 -2 -72 -42 -245 -62 -269 -7 -8 -11 -16 -9 -18 10 -12 -53
-108 -108 -164 -93 -94 -232 -167 -395 -207 -99 -24 -325 -23 -420 2 -202 53
-358 144 -533 310 -86 82 -114 122 -114 163 0 49 43 88 249 224 87 57 160 106
163 109 23 23 393 261 410 263 12 2 42 25 68 50 63 63 102 93 191 149 42 26
81 51 86 55 6 5 31 21 56 35 73 43 109 85 109 129 0 21 -4 41 -10 44 -5 3 -10
15 -10 25 0 10 -3 20 -7 22 -5 2 -21 22 -37 45 -27 41 -89 102 -151 151 -49
38 -205 105 -270 116 -16 3 -51 10 -77 14 -45 9 -279 7 -343 -2 -106 -16 -510
-198 -565 -256 -3 -3 -25 -21 -50 -40 -77 -59 -81 -63 -130 -128 -68 -88 -125
-209 -157 -332 -24 -95 -27 -122 -27 -275 0 -95 6 -198 13 -234 7 -34 11 -65
8 -67 -2 -2 -34 13 -72 33 -79 42 -227 105 -233 99 -2 -2 -19 2 -38 10 -18 8
-48 16 -67 18 -18 3 -44 7 -58 11 -14 3 -81 7 -150 9 -72 1 -133 8 -146 15
-53 28 -51 -21 -48 1176 1 611 6 1128 10 1150 18 106 82 186 177 220 57 21 55
20 143 29 119 13 130 15 148 21 9 4 17 10 18 14 0 3 2 14 4 23 2 9 -8 27 -21
39 -24 22 -33 23 -198 26 -95 2 -175 1 -177 -1z m-2323 -1392 c144 -152 258
-294 309 -382 11 -17 26 -34 35 -37 9 -3 22 -14 30 -26 8 -12 26 -34 40 -49
14 -15 48 -54 75 -85 28 -32 55 -63 60 -69 6 -6 39 -45 75 -86 35 -41 71 -82
80 -91 8 -9 28 -31 44 -50 31 -36 154 -176 171 -195 6 -6 35 -39 65 -74 30
-35 60 -68 65 -74 26 -29 95 -108 145 -165 30 -35 66 -76 80 -91 107 -117 110
-143 33 -227 -197 -211 -280 -463 -250 -757 8 -70 35 -214 43 -228 3 -5 1 -8
-4 -8 -5 0 -14 10 -20 23 -26 50 -58 90 -143 177 -100 102 -279 201 -406 225
-16 3 -39 7 -53 10 -53 12 -78 14 -185 14 -142 -1 -155 -2 -155 -11 0 -4 -4
-8 -9 -8 -5 0 -39 -14 -76 -31 -185 -85 -249 -82 -277 15 -8 30 -12 304 -14
981 -2 517 -4 992 -4 1055 -1 63 1 144 5 180 8 95 14 188 14 247 l1 51 94 -96
c51 -53 111 -115 132 -138z m3980 -414 c101 -32 197 -89 248 -148 17 -20 36
-41 42 -47 18 -17 48 -78 51 -103 7 -42 -27 -76 -153 -157 -69 -44 -135 -88
-146 -97 -12 -10 -27 -18 -35 -18 -7 0 -13 -4 -13 -9 0 -4 -20 -19 -45 -32
-25 -13 -45 -27 -45 -30 0 -4 -13 -12 -30 -19 -16 -7 -30 -16 -30 -20 0 -4
-13 -13 -30 -20 -16 -7 -30 -16 -30 -21 0 -4 -9 -11 -20 -14 -11 -3 -26 -12
-32 -18 -7 -7 -51 -37 -98 -67 -47 -30 -87 -57 -90 -61 -8 -10 -51 -31 -83
-40 -33 -9 -61 1 -76 30 -9 16 -36 126 -59 236 -3 17 -6 80 -6 140 2 289 144
460 429 520 72 14 197 12 251 -5z m-1631 -1041 c33 -7 65 -16 71 -21 7 -5 16
-8 20 -7 27 6 196 -81 263 -136 53 -43 137 -135 123 -135 -4 0 -2 -4 4 -8 15
-10 92 -172 120 -252 48 -138 61 -227 59 -381 -2 -79 -5 -153 -8 -164 -42
-167 -59 -220 -103 -311 -66 -136 -104 -151 -319 -121 -266 36 -464 -22 -606
-177 -51 -55 -79 -53 -159 10 -83 65 -78 61 -136 129 -62 74 -103 142 -133
220 -13 33 -27 69 -32 80 -5 11 -11 31 -13 45 -2 14 -7 32 -10 40 -33 87 -38
501 -7 582 5 13 9 28 10 33 11 69 49 153 72 160 18 6 79 -22 79 -37 0 -4 10
-18 23 -31 12 -13 31 -34 42 -48 65 -78 242 -287 259 -305 28 -28 56 -63 56
-69 0 -7 50 -55 73 -69 12 -7 28 -12 35 -11 6 2 18 3 25 4 7 0 22 7 32 15 18
13 19 26 16 222 -2 115 -4 301 -6 414 -1 163 -5 213 -18 243 -17 39 -49 58
-99 61 -34 1 -36 12 -6 22 70 22 168 23 273 3z m1110 -655 c91 -81 393 -264
435 -264 6 0 8 -5 5 -10 -4 -6 -11 -8 -16 -5 -5 4 -9 1 -9 -4 0 -6 -4 -11 -10
-11 -5 0 -39 -18 -75 -40 -36 -22 -68 -40 -70 -40 -9 0 -69 -53 -135 -120 -58
-58 -105 -133 -136 -215 -21 -56 -40 -175 -38 -230 3 -61 14 -146 20 -157 3
-4 7 -17 9 -28 9 -48 115 -222 165 -270 3 -3 25 -30 50 -60 25 -30 52 -62 60
-70 8 -9 40 -45 70 -81 69 -81 459 -472 564 -564 92 -82 94 -83 176 -155 233
-205 272 -251 301 -355 18 -65 18 -160 0 -194 -7 -12 -9 -21 -6 -21 10 0 -27
-64 -62 -107 -107 -133 -287 -175 -548 -129 -11 2 -47 12 -80 22 -33 10 -62
18 -65 19 -3 0 -20 9 -37 18 -18 10 -34 16 -35 15 -2 -1 -14 5 -28 14 -144 88
-178 117 -248 209 -54 73 -58 99 -18 142 66 71 85 112 101 217 4 25 9 54 11
65 33 163 21 328 -37 524 -26 85 -89 242 -105 262 -8 8 -14 18 -14 22 0 4 -21
41 -46 84 -67 114 -156 227 -228 292 -16 14 -38 35 -50 47 -30 29 -85 68 -126
89 -42 22 -93 22 -197 1 -14 -3 -23 0 -23 7 0 15 36 48 44 40 3 -4 6 -2 6 4 0
6 28 39 61 74 34 35 73 80 88 99 14 19 28 37 31 40 8 8 63 93 78 120 41 76 87
220 118 365 10 50 14 287 5 333 -5 23 -6 42 -2 42 3 0 24 -16 46 -36z m1435
-199 c-4 -19 -6 -35 -3 -35 2 0 1 -6 -4 -12 -4 -7 -8 -16 -8 -20 0 -16 -47
-58 -70 -64 -31 -8 -116 3 -205 26 -19 5 -46 11 -60 14 -14 3 -36 7 -50 10
-13 3 -42 8 -65 11 -22 3 -47 8 -55 10 -8 2 -44 7 -80 10 -36 4 -67 8 -69 10
-1 2 16 9 40 15 62 17 140 15 288 -9 49 -8 160 -7 201 2 24 5 110 50 122 64
17 21 26 5 18 -32z m-4595 -169 c11 -3 21 -5 23 -5 1 -1 3 0 5 1 7 7 80 -53
140 -116 51 -52 80 -94 113 -162 25 -50 44 -95 43 -100 -1 -5 -1 -11 1 -14 15
-39 20 -198 8 -265 -10 -61 -50 -157 -75 -183 -7 -7 -13 -16 -13 -20 0 -13
-88 -100 -132 -130 -25 -17 -96 -56 -158 -87 -124 -61 -150 -66 -321 -68 -124
-2 -151 10 -166 70 -14 58 -9 868 6 921 26 94 121 147 285 159 39 3 72 6 73 7
3 3 149 -4 168 -8z m4037 -36 c242 -43 421 -185 540 -428 30 -62 49 -82 107
-114 23 -13 29 -22 25 -40 -9 -44 -7 -133 4 -173 14 -50 52 -103 92 -128 31
-19 110 -26 159 -14 61 16 126 117 136 213 3 27 7 70 10 96 7 66 41 151 73
183 27 27 82 60 82 50 0 -4 6 -3 13 2 18 11 35 14 107 15 149 2 249 -29 319
-100 35 -35 70 -88 78 -117 31 -117 31 -176 2 -217 -18 -24 -64 -54 -99 -63
-4 -1 -85 -25 -100 -30 -3 -1 -12 -4 -20 -8 -8 -3 -40 -13 -70 -22 -30 -9 -62
-19 -70 -22 -8 -4 -17 -7 -20 -8 -3 -1 -14 -5 -25 -10 -11 -4 -60 -23 -110
-43 -97 -38 -258 -119 -263 -133 -2 -5 -8 -9 -14 -9 -11 0 -74 -45 -101 -72
-10 -10 -21 -18 -25 -18 -19 0 -128 -122 -138 -154 -4 -11 -11 -24 -15 -27 -5
-3 -13 -37 -17 -76 l-7 -71 -100 79 c-55 44 -107 85 -115 92 -8 7 -35 28 -60
47 -24 19 -50 41 -58 47 -7 7 -41 34 -75 60 -34 26 -64 50 -67 53 -3 3 -41 35
-85 70 -44 35 -82 67 -85 70 -3 3 -21 18 -40 34 -125 101 -417 384 -462 446
-50 69 -90 183 -82 236 14 96 30 131 86 190 97 102 298 148 490 114z m-3159
-320 c13 -14 50 -59 83 -100 34 -41 96 -111 138 -154 42 -44 75 -87 74 -95 -2
-9 -32 -35 -68 -58 -262 -167 -396 -295 -503 -481 -54 -93 -125 -269 -131
-327 -5 -39 -19 -96 -25 -100 -4 -2 -21 14 -37 35 -16 22 -32 40 -36 40 -5 0
-8 5 -8 10 0 6 -26 43 -58 83 -32 39 -74 95 -93 122 -19 28 -37 52 -40 55 -15
12 -40 73 -35 86 6 15 48 34 79 37 9 1 17 5 17 10 0 4 5 5 10 2 6 -4 16 -2 23
3 7 5 23 13 37 17 26 8 168 75 185 87 116 87 155 127 224 231 85 127 110 213
110 375 0 196 -1 190 17 167 8 -11 25 -31 37 -45z m1212 -325 c66 -13 79 -17
108 -32 l31 -16 -40 -20 c-21 -12 -41 -22 -44 -22 -3 -1 -12 -4 -20 -8 -42
-17 -93 -24 -174 -23 -101 1 -120 13 -98 61 14 30 64 54 130 61 25 2 48 6 50
9 2 2 9 2 15 0 7 -3 26 -7 42 -10z m383 -196 c24 -16 47 -29 52 -29 4 0 10 -3
12 -7 2 -5 37 -34 79 -65 87 -66 188 -166 230 -229 41 -61 104 -197 95 -206
-3 -3 2 -22 9 -43 7 -21 17 -55 20 -77 4 -21 9 -49 12 -63 6 -30 14 -251 14
-370 0 -124 -11 -214 -42 -320 -7 -25 -14 -49 -15 -55 -8 -31 -30 -81 -39 -87
-5 -4 -7 -8 -3 -8 16 0 -126 -250 -143 -250 -4 0 -10 -9 -14 -19 -9 -30 -144
-162 -209 -205 -93 -61 -233 -125 -311 -141 -114 -24 -153 -29 -260 -29 -117
0 -148 4 -230 25 -22 6 -47 13 -56 14 -10 2 -51 19 -92 38 -141 65 -245 150
-340 276 -140 187 -244 456 -273 711 -12 95 -6 390 7 390 3 0 6 6 6 13 1 15
12 76 18 97 2 8 6 26 9 40 20 112 150 410 208 475 42 48 139 122 185 141 49
21 107 13 133 -18 11 -12 33 -66 50 -118 59 -188 146 -280 304 -319 63 -15
168 -12 224 7 83 28 152 117 152 196 0 31 -57 96 -104 117 -75 34 -142 18
-214 -50 -33 -32 -33 -32 -63 -14 -40 24 -74 94 -59 122 8 16 20 20 53 20 23
0 60 2 82 5 22 3 72 8 110 11 39 4 104 16 145 27 41 12 88 22 104 24 16 2 31
5 32 7 11 11 86 -10 122 -34z m3336 -134 c24 -36 24 -634 0 -716 -33 -113
-118 -214 -223 -266 -31 -15 -58 -28 -61 -28 -3 -1 -18 -4 -35 -8 -16 -4 -41
-10 -55 -13 -51 -12 -148 -7 -196 12 -205 76 -313 318 -229 517 8 20 14 38 13
39 -2 2 17 31 41 65 108 154 269 266 526 365 173 67 195 70 219 33z"/>
<path d="M3945 8027 c-40 -13 -65 -36 -81 -74 -38 -88 11 -175 108 -190 65
-10 85 -9 119 8 64 32 93 134 56 197 -11 18 -30 40 -43 49 -28 18 -118 24
-159 10z"/>
<path d="M4958 8029 c-75 -20 -115 -79 -104 -152 20 -129 208 -167 286 -57 40
56 20 160 -38 198 -27 17 -101 23 -144 11z"/>
<path d="M3960 7390 c-73 -21 -105 -71 -98 -151 8 -78 58 -119 148 -124 67 -3
135 45 147 104 4 20 6 41 4 46 -2 6 -4 19 -5 30 -3 30 -33 70 -64 84 -33 16
-98 21 -132 11z"/>
</g>
</svg>
