<?xml version="1.0" encoding="UTF-8" standalone="no"?>
<!-- Created with Inkscape (http://www.inkscape.org/) -->

<svg
   xmlns:dc="http://purl.org/dc/elements/1.1/"
   xmlns:cc="http://creativecommons.org/ns#"
   xmlns:rdf="http://www.w3.org/1999/02/22-rdf-syntax-ns#"
   xmlns:svg="http://www.w3.org/2000/svg"
   xmlns="http://www.w3.org/2000/svg"
   xmlns:sodipodi="http://sodipodi.sourceforge.net/DTD/sodipodi-0.dtd"
   xmlns:inkscape="http://www.inkscape.org/namespaces/inkscape"
   version="1.1"
   id="svg2"
   xml:space="preserve"
   width="816"
   height="1056"
   viewBox="0 0 816 1056"
   sodipodi:docname="Noel-Logo.svg"
   inkscape:version="0.92.1 r"><metadata
     id="metadata8"><rdf:RDF><cc:Work
         rdf:about=""><dc:format>image/svg+xml</dc:format><dc:type
           rdf:resource="http://purl.org/dc/dcmitype/StillImage" /><dc:title></dc:title></cc:Work></rdf:RDF></metadata><defs
     id="defs6"><clipPath
       clipPathUnits="userSpaceOnUse"
       id="clipPath18"><path
         d="M 0,792 H 612 V 0 H 0 Z"
         id="path16"
         inkscape:connector-curvature="0" /></clipPath></defs><sodipodi:namedview
     pagecolor="#ffffff"
     bordercolor="#666666"
     borderopacity="1"
     objecttolerance="10"
     gridtolerance="10"
     guidetolerance="10"
     inkscape:pageopacity="0"
     inkscape:pageshadow="2"
     inkscape:window-width="1366"
     inkscape:window-height="704"
     id="namedview4"
     showgrid="false"
     inkscape:zoom="0.22348485"
     inkscape:cx="1414.7797"
     inkscape:cy="868.0678"
     inkscape:window-x="0"
     inkscape:window-y="27"
     inkscape:window-maximized="1"
     inkscape:current-layer="g10" /><g
     id="g10"
     inkscape:groupmode="layer"
     inkscape:label="Noel Logo"
     transform="matrix(1.3333333,0,0,-1.3333333,0,1056)"><g
       id="g12"
       transform="matrix(12.680064,0,0,11.618014,-3584.5283,-4247.4825)"><g
         id="g14"
         clip-path="url(#clipPath18)"><g
           id="g20"
           transform="translate(305.2449,389.2879)"><path
             d="m 0,0 c -0.697,0.392 -1.329,0.431 -1.98,0.16 -0.176,-0.072 -0.3,-0.242 -0.293,-0.433 0.01,-0.251 0.232,-0.239 0.412,-0.244 C -1.222,-0.537 -0.606,-0.468 0,0 m 14.022,6.099 c -1.306,-1.34 -2.706,0.073 -4.064,-0.583 1.074,-0.077 2.011,-0.347 2.959,-0.567 0.72,-0.167 1.098,0.075 1.105,1.15 M -8.31,2.807 c 0,-0.55 -0.014,-0.908 0.003,-1.266 0.056,-1.218 -0.428,-2.231 -1.186,-3.136 -0.618,-0.737 -1.448,-1.141 -2.336,-1.458 -0.249,-0.09 -0.755,-0.119 -0.476,-0.575 0.5,-0.817 1.08,-1.586 1.764,-2.574 0.437,2.833 1.834,4.706 4.01,6.031 0.227,0.138 0.47,0.281 0.179,0.555 -0.713,0.673 -1.215,1.522 -1.958,2.423 M 4.544,14.646 c -0.059,-0.598 0.177,-1.283 0.284,-1.987 0.112,-0.737 0.437,-0.794 0.988,-0.392 1.456,1.058 2.904,2.127 4.384,3.15 0.504,0.349 0.535,0.663 0.235,1.153 C 9.674,17.815 8.297,18.397 6.924,18.014 5.356,17.575 4.55,16.479 4.544,14.646 M 21.28,-4.542 c 0,0.744 -0.011,1.489 0.003,2.233 0.012,0.644 -0.267,0.756 -0.81,0.504 -0.534,-0.248 -1.105,-0.427 -1.614,-0.717 -1.066,-0.609 -1.976,-1.385 -2.433,-2.585 -0.59,-1.55 0.535,-3.465 2.035,-3.446 1.596,0.02 2.82,1.236 2.82,2.802 0,0.403 0,0.806 -10e-4,1.209 m -6.686,-0.965 c -0.088,1.005 0.334,1.492 0.807,1.964 1.413,1.414 3.262,1.991 5.074,2.618 0.505,0.175 0.698,0.397 0.692,0.915 -0.014,1.357 -0.826,2.244 -2.155,2.299 -1.443,0.06 -1.91,-0.428 -2.013,-2.098 -0.064,-1.046 -0.563,-1.657 -1.307,-1.597 -0.694,0.056 -1.135,0.79 -1.061,1.779 0.018,0.231 0.199,0.51 -0.158,0.628 -0.419,0.14 -0.494,0.516 -0.649,0.851 C 12.964,3.713 11.448,4.651 9.55,4.511 7.526,4.361 6.648,2.581 7.806,0.92 c 0.352,-0.504 0.805,-0.939 1.23,-1.388 1.661,-1.753 3.541,-3.26 5.558,-5.039 M -2.93,11.138 c 0.888,0.07 1.001,-0.411 0.989,-1.11 -0.024,-1.365 0.047,-2.732 0.036,-4.097 -0.002,-0.334 0.204,-0.832 -0.266,-0.978 -0.423,-0.132 -0.638,0.3 -0.862,0.586 -0.73,0.926 -1.456,1.854 -2.168,2.794 -0.4,0.528 -0.587,0.375 -0.771,-0.167 -0.422,-1.24 -0.403,-2.521 -0.276,-3.782 0.168,-1.649 0.774,-3.129 2.137,-4.195 0.223,-0.174 0.457,-0.409 0.712,-0.083 1.091,1.391 2.598,1.533 4.132,1.206 0.935,-0.199 1.23,0.241 1.504,0.904 1.006,2.429 0.806,4.798 -0.422,7.089 -0.83,1.549 -3.447,2.59 -4.745,1.833 M 4.529,-7.349 c 0.078,1.043 -0.075,2.046 -0.34,3.045 -0.404,1.524 -1.538,2.439 -2.698,3.326 -0.745,0.571 -1.483,-0.096 -2.23,-0.124 -0.369,-0.014 -0.737,-0.08 -1.103,-0.14 -0.221,-0.036 -0.598,0.107 -0.594,-0.242 0.002,-0.236 0.215,-0.521 0.412,-0.692 0.268,-0.233 0.329,0.126 0.473,0.252 0.508,0.446 1.024,0.405 1.485,-0.053 0.477,-0.475 0.301,-0.971 -0.07,-1.41 -0.272,-0.321 -0.654,-0.451 -1.075,-0.485 -1.367,-0.111 -2.359,0.755 -2.641,2.317 -0.142,0.788 -0.666,1.032 -1.293,0.559 -0.468,-0.354 -0.92,-0.755 -1.174,-1.303 -1.53,-3.288 -1.643,-6.626 0.019,-9.86 2.205,-4.292 7.053,-3.572 9.058,-1.016 1.308,1.667 1.946,3.659 1.771,5.826 M 2.681,0.026 c 0.47,-0.003 0.898,0.312 1.42,-0.04 2.231,-1.505 4.02,-5.617 3.517,-8.285 -0.12,-0.637 -0.14,-1.463 -0.543,-1.836 -0.567,-0.523 -0.248,-0.794 -0.012,-1.151 0.964,-1.459 3.134,-2.29 4.849,-1.883 1.038,0.246 1.73,1.143 1.772,2.225 0.037,0.964 -0.455,1.659 -1.103,2.264 -2.429,2.269 -4.749,4.636 -6.659,7.37 C 4.842,0.237 5.026,2.568 6.294,3.964 6.774,4.493 7.361,4.88 8.137,5.31 6.956,5.845 6.055,6.542 5.201,7.33 5.424,6.019 5.264,4.809 4.934,3.595 4.546,2.164 3.643,1.091 2.648,0.064 2.592,0.025 2.536,-0.014 2.479,-0.054 c 0.067,0.027 0.134,0.053 0.202,0.08 M -13.73,4.72 c -0.31,-0.003 -0.624,0.028 -0.928,-0.013 -1.413,-0.195 -1.709,-0.538 -1.715,-1.957 -0.006,-1.302 -0.003,-2.604 -0.007,-3.907 -0.005,-1.678 -0.006,-1.678 1.677,-1.547 0.578,-0.096 0.98,0.309 1.447,0.52 2.597,1.174 2.567,4.324 1.203,5.966 -0.45,0.542 -0.878,1.052 -1.677,0.938 m 1.125,12.863 0.003,0.02 c -0.041,0.203 -0.164,0.322 -0.366,0.361 l -0.004,0.03 c -0.898,1.565 -2.12,2.87 -3.321,4.217 0.057,-1.452 -0.303,-2.853 -0.069,-4.261 0,-0.127 0,-0.255 0,-0.382 0,-1.116 -0.001,-2.232 -0.001,-3.348 0.001,-1.058 0.001,-2.115 0.001,-3.173 -0.005,-1.199 -0.01,-2.397 -0.015,-3.595 -0.008,-2.331 0.151,-2.421 2.294,-1.292 l 0.341,0.037 c 2.421,0.159 4.156,-0.903 5.331,-3.041 -0.63,2.506 -0.439,4.788 1.36,6.745 0.296,0.322 0.144,0.638 -0.082,0.92 -1.707,2.126 -3.418,4.248 -5.127,6.372 -0.05,0.071 -0.1,0.142 -0.15,0.213 -0.065,0.059 -0.13,0.118 -0.195,0.177 m 29.092,1.668 c 0.001,2.237 0.014,4.474 -10e-4,6.71 -0.009,1.253 -0.16,1.381 -1.441,1.393 -0.161,0.001 -0.326,-0.023 -0.37,0.175 -0.04,0.183 0.093,0.291 0.238,0.352 1.086,0.458 2.165,0.934 3.267,1.351 0.392,0.149 0.656,-0.085 0.673,-0.524 0.01,-0.248 0.008,-0.497 0.008,-0.745 10e-4,-7.425 0.002,-14.851 0,-22.276 0,-0.623 -0.026,-1.259 0.284,-1.821 0.262,-0.475 0.704,-0.717 1.252,-0.594 0.373,0.083 0.573,0.383 0.549,0.766 -0.021,0.342 -0.048,0.745 -0.593,0.478 -0.494,-0.242 -0.92,-0.108 -0.989,0.427 -0.064,0.495 0.354,0.764 0.819,0.848 1.021,0.182 1.946,-1.03 1.487,-2.063 -0.279,-0.631 -0.194,-0.833 0.413,-1.146 1.108,-0.57 1.446,-1.655 1.458,-2.831 0.022,-2.205 0.002,-4.411 0.022,-6.617 0.004,-0.505 -0.182,-1.141 0.408,-1.427 0.61,-0.295 0.94,0.286 1.34,0.602 0.088,0.071 0.204,0.106 0.472,0.24 -0.171,-1.152 -0.87,-1.772 -1.603,-2.273 -1.374,-0.939 -2.329,-0.618 -2.948,0.918 -0.17,0.423 -0.327,0.466 -0.655,0.189 -0.237,-0.2 -0.508,-0.359 -0.744,-0.56 -0.862,-0.733 -1.817,-1.174 -2.983,-1.048 -0.301,0.033 -0.578,0.047 -0.744,-0.358 -1.169,-2.839 -3.02,-3.987 -5.988,-3.705 -0.738,0.07 -1.481,0.209 -2.193,0.415 -0.737,0.213 -1.396,0.424 -1.715,-0.565 -0.027,-0.084 -0.191,-0.173 -0.292,-0.174 -0.185,-10e-4 -0.228,0.166 -0.255,0.327 -0.051,0.297 0.064,0.616 -0.125,0.919 -0.501,-0.081 -0.742,-0.532 -1.121,-0.777 -3.647,-2.36 -7.4,-2.714 -11.239,-0.523 -1.236,0.706 -2.044,1.877 -2.808,3.053 -1.386,2.133 -2.766,4.269 -4.148,6.404 -0.245,0.386 -0.484,0.776 -0.736,1.157 -0.367,0.554 -0.937,0.365 -1.43,0.334 -0.55,-0.034 -0.416,-0.519 -0.419,-0.86 -0.006,-0.889 0.017,-1.778 0.028,-2.668 -0.004,-0.954 -0.051,-1.911 -0.002,-2.863 0.055,-1.079 0.64,-1.674 1.621,-1.804 0.245,-0.033 0.659,0.128 0.665,-0.276 0.006,-0.386 -0.423,-0.242 -0.662,-0.322 -0.115,-0.039 -0.243,-0.04 -0.364,-0.059 -0.922,0.209 -1.851,0.1 -2.779,0.065 -0.119,0.003 -0.238,0.004 -0.356,0.006 -0.129,0.001 -0.258,0.001 -0.386,0.002 -0.516,0.017 -1.035,0.105 -1.541,-0.076 -0.161,-0.007 -0.321,-0.014 -0.481,-0.021 -0.066,0.015 -0.131,0.031 -0.197,0.047 -0.058,0.02 -0.119,0.035 -0.174,0.061 -0.283,0.134 -0.843,-0.158 -0.846,0.297 -0.002,0.455 0.542,0.218 0.839,0.296 0.64,0.167 1.234,0.297 1.305,1.172 0.166,2.031 0.211,4.063 0.162,6.099 0.008,2.175 -0.013,4.351 0.038,6.526 0.018,0.756 -0.244,1.032 -0.967,0.918 -0.224,0.026 -0.448,0.052 -0.673,0.079 -0.2,0.272 -0.418,0.532 -0.596,0.818 -0.278,0.449 -0.2,0.856 0.121,1.282 0.33,0.44 0.744,0.523 1.227,0.438 0.311,-0.054 0.5,-0.269 0.478,-0.588 -0.019,-0.269 -0.17,-0.513 -0.481,-0.41 -0.32,0.107 -0.605,0.22 -0.766,-0.184 -0.082,-0.206 -0.057,-0.44 0.086,-0.62 0.252,-0.316 0.606,-0.283 0.94,-0.199 0.955,0.24 0.723,1.099 0.73,1.691 0.049,4.149 0.024,8.299 0.023,12.449 0.005,2.173 0.026,4.347 0.008,6.521 -0.009,1.108 -0.731,1.974 -1.818,2.287 -0.351,0.239 -0.749,0.144 -1.131,0.158 -0.046,0.019 -0.094,0.034 -0.144,0.044 0,-0.001 -0.03,0.069 -0.03,0.07 0,0.089 0,0.179 -10e-4,0.268 0.011,0.041 0.017,0.082 0.018,0.124 1.221,0.029 2.442,0.057 3.663,0.085 0.808,-0.027 1.615,-0.053 2.423,-0.079 3.785,-5.002 7.57,-10.004 11.4,-15.065 0.309,0.461 0.205,0.81 0.206,1.135 0.01,4.1 -0.008,8.201 0.015,12.301 0.022,3.744 2.744,4.535 5.503,4.208 C 0.982,29.606 1.164,29.497 1.134,29.221 1.108,28.982 0.908,28.956 0.718,28.942 0.532,28.928 0.345,28.932 0.16,28.912 c -1.35,-0.151 -1.95,-0.758 -1.968,-2.127 -0.035,-2.64 -0.025,-5.281 -0.03,-7.922 -0.004,-1.926 0.019,-3.852 -0.015,-5.778 -0.012,-0.665 0.162,-0.968 0.886,-0.926 1.437,0.084 2.729,-0.4 3.98,-1.232 -0.402,2.293 -0.263,4.405 1.156,6.268 1.143,1.19 2.58,1.875 4.113,2.396 0.118,0.013 0.237,0.026 0.356,0.039 0.185,0.01 0.371,0.02 0.557,0.03 0.313,0.001 0.625,0.003 0.938,0.004 1.45,-0.208 2.625,-0.82 3.375,-2.152 0.313,-0.558 0.302,-0.881 -0.258,-1.296 -0.829,-0.614 -1.796,-1.075 -2.409,-1.958 l 0.027,-0.023 C 10.644,14.273 10.466,14.193 10.319,14.028 9.271,13.261 8.231,12.482 7.172,11.731 5.419,10.488 5.35,10.431 6.919,8.904 c 2.042,-1.987 4.748,-2.315 6.94,-0.823 1.164,0.744 1.471,1.932 1.661,3.186 0.037,0.246 -0.087,0.658 0.334,0.637 0.351,-0.018 0.341,-0.416 0.368,-0.669 C 16.39,9.645 15.857,8.242 15.018,6.929 14.902,6.748 14.682,6.556 14.694,6.383 c 0.11,-1.52 0.084,-3.038 0.015,-4.558 -0.01,-0.211 0.112,-0.617 0.437,-0.271 0.657,0.699 1.43,1.174 2.331,1.47 0.235,0.077 0.291,0.249 0.103,0.413 -1.22,1.065 -1.052,2.517 -1.065,3.896 -0.033,3.413 -0.022,6.826 -0.029,10.239 0,0.124 0,0.248 0,0.373 0,0.435 10e-4,0.871 10e-4,1.306"
             style="fill:#ea7e83;fill-opacity:1;fill-rule:nonzero;stroke:none"
             id="path22"
             inkscape:connector-curvature="0" /></g><g
           id="g24"
           transform="translate(300.247,416.6222)"><path
             d="m 0,0 c -0.076,-0.498 -0.22,-0.977 -0.866,-0.958 -0.535,0.016 -0.995,0.25 -1.01,0.848 -0.013,0.543 0.275,0.942 0.881,0.973 C -0.412,0.892 -0.072,0.612 0,0"
             style="fill:#ea7e83;fill-opacity:1;fill-rule:nonzero;stroke:none"
             id="path26"
             inkscape:connector-curvature="0" /></g><g
           id="g28"
           transform="translate(306.1683,416.4855)"><path
             d="M 0,0 C -0.111,-0.484 -0.408,-0.82 -0.941,-0.828 -1.542,-0.837 -1.888,-0.429 -1.89,0.108 -1.891,0.671 -1.474,0.977 -0.902,1 -0.231,1.027 -0.102,0.542 0,0"
             style="fill:#ea7e83;fill-opacity:1;fill-rule:nonzero;stroke:none"
             id="path30"
             inkscape:connector-curvature="0" /></g><g
           id="g32"
           transform="translate(299.3133,411.5214)"><path
             d="M 0,0 C -0.576,0.029 -0.892,0.331 -0.899,0.923 -0.906,1.542 -0.516,1.822 0.032,1.824 0.562,1.827 0.897,1.482 0.898,0.95 0.898,0.4 0.629,0.018 0,0"
             style="fill:#ea7e83;fill-opacity:1;fill-rule:nonzero;stroke:none"
             id="path34"
             inkscape:connector-curvature="0" /></g></g></g></g></svg>